<?xml version="1.0" standalone="no"?>
<!DOCTYPE svg PUBLIC "-//W3C//DTD SVG 20010904//EN"
 "http://www.w3.org/TR/2001/REC-SVG-20010904/DTD/svg10.dtd">
<svg version="1.0" xmlns="http://www.w3.org/2000/svg"
 width="267.000000pt" height="469.000000pt" viewBox="0 0 267.000000 469.000000"
 preserveAspectRatio="xMidYMid meet">

<g transform="translate(0.000000,469.000000) scale(0.100000,-0.100000)"
fill="#000000" stroke="none">
<path d="M1592 4449 c-110 -19 -260 -98 -350 -183 -45 -42 -113 -137 -150
-211 -26 -53 -340 -755 -554 -1240 -44 -99 -90 -202 -102 -230 -13 -27 -82
-183 -155 -346 l-131 -297 0 -402 c0 -317 3 -401 13 -398 7 3 13 29 15 71 l3
67 399 0 400 0 0 195 0 195 -400 0 -400 0 0 135 0 135 121 272 c66 150 192
433 279 628 87 195 244 549 349 785 106 237 206 454 224 484 42 72 158 188
229 229 236 139 540 117 753 -55 162 -131 258 -325 285 -575 6 -64 10 -688 10
-1818 l0 -1720 -732 0 -732 0 -160 159 c-263 259 -404 331 -600 307 l-56 -7 0
-245 0 -244 1150 0 1150 0 -2 1827 -3 1828 -23 80 c-103 354 -354 569 -677
580 -55 2 -124 0 -153 -6z m-1121 -2971 c-3 -21 -6 -26 -9 -15 -3 17 3 47 11
47 2 0 1 -15 -2 -32z m26 -15 c-3 -10 -5 -2 -5 17 0 19 2 27 5 18 2 -10 2 -26
0 -35z m51 32 c9 16 13 17 21 6 6 -9 11 -10 15 -2 11 16 46 13 53 -5 3 -8 -1
-22 -9 -31 -12 -12 -20 -13 -37 -4 -11 7 -21 8 -21 4 0 -4 -5 -1 -10 7 -9 13
-12 12 -25 -4 -14 -19 -15 -18 -14 15 0 26 2 30 8 14 8 -19 8 -19 19 0z m124
-15 c-2 -16 -5 -30 -7 -30 -2 0 -5 14 -7 30 -3 19 0 30 7 30 7 0 10 -11 7 -30z
m-389 -1068 c-9 -6 -7 -12 7 -25 19 -16 20 -15 26 8 3 14 10 25 14 25 6 0 19
-33 20 -50 0 -3 -20 -6 -45 -8 -44 -3 -45 -2 -45 28 0 22 5 30 18 30 12 0 13
-3 5 -8z m125 2 c16 -5 22 -13 21 -33 -1 -17 -3 -20 -6 -8 -5 21 -17 22 -37 2
-20 -21 -26 -19 -26 8 0 36 8 41 48 31z m51 -26 c0 -27 -2 -29 -8 -13 -5 11
-6 26 -4 33 8 21 13 13 12 -20z m61 -12 c0 -6 -11 -12 -24 -12 -23 -2 -24 0
-14 29 10 28 12 29 25 12 7 -11 13 -24 13 -29z m50 12 c0 -25 -3 -29 -10 -18
-6 10 -10 11 -10 3 0 -7 -4 -13 -8 -13 -4 0 -7 12 -6 28 2 33 1 32 19 32 10 0
15 -10 15 -32z m-276 -87 c3 -5 -2 -8 -11 -7 -26 2 -27 -23 -1 -33 23 -10 23
-10 1 -10 -27 -1 -36 13 -28 39 7 21 30 27 39 11z m48 -21 c-2 -16 -8 -30 -12
-30 -4 0 -10 14 -12 30 -4 23 -1 30 12 30 13 0 16 -7 12 -30z m66 7 c5 -23
-16 -47 -34 -40 -14 5 -19 44 -7 57 12 12 38 1 41 -17z m32 -7 c5 0 7 -7 4
-15 -11 -27 -24 -16 -23 18 1 17 3 24 6 15 2 -10 8 -18 13 -18z m29 -2 c0 -31
-1 -31 -10 -10 -5 13 -7 28 -3 33 10 16 14 9 13 -23z m49 24 c15 12 16 11 3
-4 -10 -14 -11 -21 -2 -32 9 -11 6 -13 -14 -13 -19 0 -25 5 -25 22 0 24 13 42
18 25 3 -7 9 -7 20 2z m60 -19 c8 -25 7 -28 -14 -28 -13 0 -24 1 -24 2 0 7 20
53 24 53 2 0 8 -12 14 -27z"/>
<path d="M591 1484 c0 -11 3 -14 6 -6 3 7 2 16 -1 19 -3 4 -6 -2 -5 -13z"/>
<path d="M610 1486 c0 -9 5 -16 10 -16 6 0 10 4 10 9 0 6 -4 13 -10 16 -5 3
-10 -1 -10 -9z"/>
<path d="M270 380 c0 -5 5 -10 11 -10 5 0 7 5 4 10 -3 6 -8 10 -11 10 -2 0 -4
-4 -4 -10z"/>
<path d="M370 280 c0 -11 7 -20 15 -20 8 0 15 9 15 20 0 11 -7 20 -15 20 -8 0
-15 -9 -15 -20z"/>
<path d="M1692 4263 c2 -20 8 -28 23 -28 31 0 28 49 -3 53 -20 3 -23 0 -20
-25z"/>
<path d="M1573 4234 c-3 -8 1 -23 10 -31 23 -23 52 0 36 28 -12 23 -37 25 -46
3z"/>
<path d="M1811 4231 c-16 -28 13 -51 36 -28 18 18 11 47 -11 47 -9 0 -20 -9
-25 -19z"/>
<path d="M1632 4190 c-45 -28 -72 -76 -72 -131 0 -115 132 -191 231 -133 40
24 79 87 79 129 0 47 -35 112 -72 135 -44 27 -122 27 -166 0z m98 -131 c0 -58
-16 -58 -22 1 -3 34 1 43 20 49 1 1 2 -22 2 -50z"/>
<path d="M1496 4133 c-8 -19 1 -30 29 -35 12 -2 21 4 23 16 7 32 -41 50 -52
19z"/>
<path d="M1887 4138 c-24 -19 -6 -42 26 -34 19 4 24 11 20 26 -6 23 -22 26
-46 8z"/>
<path d="M1513 4019 c-25 -9 -27 -16 -14 -38 12 -19 51 -4 51 19 0 25 -10 30
-37 19z"/>
<path d="M1880 4010 c-9 -17 -7 -22 15 -32 28 -13 32 -11 37 16 5 28 -38 41
-52 16z"/>
<path d="M1575 3908 c-14 -22 -14 -24 6 -33 27 -12 56 20 38 42 -16 18 -26 16
-44 -9z"/>
<path d="M1812 3918 c-14 -14 2 -48 24 -48 20 0 29 27 14 45 -15 18 -22 19
-38 3z"/>
<path d="M1270 3880 c0 -23 5 -30 19 -30 11 0 23 5 26 10 11 18 -6 50 -26 50
-14 0 -19 -7 -19 -30z"/>
<path d="M2112 3883 c2 -20 9 -28 23 -28 14 0 21 8 23 28 3 23 0 27 -23 27
-23 0 -26 -4 -23 -27z"/>
<path d="M1690 3860 c0 -27 3 -31 23 -28 16 2 22 10 22 28 0 18 -6 26 -22 28
-20 3 -23 -1 -23 -28z"/>
<path d="M1152 3857 c-7 -8 -7 -17 2 -30 15 -20 27 -22 44 -5 9 9 8 16 -5 30
-19 21 -27 22 -41 5z"/>
<path d="M1392 3858 c-17 -17 -15 -35 5 -42 19 -7 46 20 40 39 -5 15 -31 17
-45 3z"/>
<path d="M1993 3854 c-3 -8 1 -23 10 -31 23 -23 52 0 36 28 -12 23 -37 25 -46
3z"/>
<path d="M2231 3851 c-16 -28 13 -51 36 -28 18 18 11 47 -11 47 -9 0 -20 -9
-25 -19z"/>
<path d="M1212 3810 c-53 -32 -74 -75 -69 -143 3 -49 8 -62 37 -92 79 -81 205
-62 251 39 23 52 23 80 0 132 -36 78 -143 110 -219 64z m104 -95 c4 -8 -1 -26
-10 -40 -20 -30 -20 -33 2 -38 9 -3 2 -5 -15 -6 -39 -1 -40 2 -13 36 25 32 28
62 5 43 -17 -14 -31 -8 -20 9 9 16 45 13 51 -4z"/>
<path d="M2050 3808 c-69 -47 -91 -144 -47 -209 30 -46 106 -83 151 -75 108
20 167 134 117 226 -28 53 -74 80 -136 80 -38 0 -61 -6 -85 -22z m111 -85 c4
-43 5 -70 1 -80 -5 -16 -48 -17 -57 -2 -11 16 3 23 19 10 11 -9 16 -9 21 0 4
6 2 15 -6 19 -10 7 -10 12 -1 23 15 18 3 31 -15 16 -13 -11 -19 2 -6 14 9 9
43 9 44 0z"/>
<path d="M1076 3754 c-8 -20 1 -31 29 -36 14 -2 21 3 23 20 2 12 -1 22 -6 22
-6 0 -17 3 -25 6 -8 3 -17 -2 -21 -12z"/>
<path d="M1468 3760 c-10 -6 -14 -18 -11 -30 6 -23 4 -23 37 -11 18 8 23 15
19 30 -6 23 -19 26 -45 11z"/>
<path d="M1916 3754 c-8 -20 -1 -30 24 -37 13 -3 24 1 31 14 8 16 6 21 -16 29
-33 13 -32 13 -39 -6z"/>
<path d="M2312 3760 c-19 -8 -21 -13 -12 -29 8 -15 16 -18 31 -13 11 5 20 11
20 15 -1 4 -1 14 -1 22 0 17 -5 18 -38 5z"/>
<path d="M1073 3624 c-8 -22 11 -37 36 -29 31 10 28 45 -4 45 -14 0 -28 -7
-32 -16z"/>
<path d="M1456 3624 c-8 -21 -8 -21 27 -29 26 -7 28 -5 25 16 -4 29 -42 39
-52 13z"/>
<path d="M1922 3632 c-13 -9 -6 -42 8 -42 22 0 40 14 40 31 0 20 -25 25 -48
11z"/>
<path d="M2296 3625 c-5 -14 20 -35 42 -35 16 0 24 33 10 42 -20 12 -45 9 -52
-7z"/>
<path d="M1697 3563 c-4 -3 -7 -17 -7 -30 0 -18 5 -23 25 -23 17 0 25 5 25 18
0 28 -28 51 -43 35z"/>
<path d="M1156 3528 c-15 -21 -15 -24 1 -36 15 -11 20 -10 31 5 7 10 11 24 10
32 -5 24 -25 23 -42 -1z"/>
<path d="M1390 3535 c-10 -13 -9 -19 5 -35 16 -18 21 -19 33 -6 11 11 11 18 3
35 -14 25 -24 26 -41 6z"/>
<path d="M2002 3538 c-16 -16 -15 -33 2 -47 20 -16 51 26 34 46 -13 16 -21 16
-36 1z"/>
<path d="M2232 3538 c-14 -14 2 -48 23 -48 21 0 27 17 15 40 -12 23 -21 25
-38 8z"/>
<path d="M1575 3520 c-9 -15 4 -50 19 -50 6 0 17 5 24 12 9 9 8 16 -5 30 -18
20 -29 23 -38 8z"/>
<path d="M1815 3514 c-19 -20 -19 -33 0 -40 17 -7 45 12 45 31 0 20 -28 26
-45 9z"/>
<path d="M1270 3480 c0 -23 5 -30 19 -30 20 0 37 32 26 50 -3 5 -15 10 -26 10
-14 0 -19 -7 -19 -30z"/>
<path d="M2117 3504 c-4 -4 -7 -18 -7 -31 0 -18 5 -23 26 -23 22 0 25 4 22 27
-3 27 -26 41 -41 27z"/>
<path d="M1660 3482 c-64 -29 -100 -82 -100 -147 0 -117 137 -196 230 -132 55
37 75 72 75 132 0 60 -20 95 -75 133 -33 22 -97 29 -130 14z m60 -114 c-25
-10 -25 -10 -4 -18 30 -12 37 -26 24 -50 -12 -23 -50 -24 -58 -2 -3 9 3 11 22
6 20 -5 26 -2 26 10 0 10 -9 16 -24 16 -19 0 -22 4 -18 25 3 19 10 25 31 24
l26 0 -25 -11z"/>
<path d="M1496 3407 c-6 -25 -8 -24 27 -32 26 -7 28 -5 25 15 -1 13 -13 26
-25 31 -17 6 -22 3 -27 -14z"/>
<path d="M1882 3412 c-7 -5 -10 -16 -6 -26 5 -13 13 -16 33 -11 32 8 33 9 25
29 -7 17 -31 21 -52 8z"/>
<path d="M924 3385 c-8 -20 4 -35 27 -35 24 0 37 29 18 41 -21 13 -39 11 -45
-6z"/>
<path d="M988 3353 c-12 -27 -63 -142 -115 -257 -51 -115 -92 -210 -91 -211
10 -9 169 -77 171 -74 10 12 227 512 225 515 -5 5 -158 74 -164 74 -3 0 -15
-21 -26 -47z m22 -222 c-5 -11 -10 -29 -10 -40 0 -27 -20 -31 -44 -7 -19 19
-19 19 10 43 37 29 59 31 44 4z"/>
<path d="M965 3110 c-3 -5 -2 -10 4 -10 5 0 13 5 16 10 3 6 2 10 -4 10 -5 0
-13 -4 -16 -10z"/>
<path d="M885 3303 c-8 -21 19 -48 40 -39 22 8 15 37 -12 47 -16 6 -23 3 -28
-8z"/>
<path d="M1508 3293 c-19 -5 -23 -20 -10 -39 11 -18 52 2 52 26 0 20 -8 22
-42 13z"/>
<path d="M1876 3284 c-4 -10 -1 -21 6 -26 21 -13 45 -9 52 8 8 20 7 21 -25 29
-20 5 -28 2 -33 -11z"/>
<path d="M1176 3273 c-7 -17 16 -43 36 -43 19 0 21 33 3 46 -25 18 -31 18 -39
-3z"/>
<path d="M846 3213 c-7 -18 9 -33 37 -33 22 0 23 36 1 44 -24 9 -31 7 -38 -11z"/>
<path d="M2090 2935 l0 -285 100 0 100 0 0 285 0 285 -100 0 -100 0 0 -285z
m105 36 c-3 -12 0 -21 10 -25 20 -7 19 -52 -1 -60 -39 -15 -58 40 -28 82 19
27 27 28 19 3z"/>
<path d="M2174 2929 c-8 -14 11 -33 25 -25 11 7 4 36 -9 36 -5 0 -12 -5 -16
-11z"/>
<path d="M1136 3183 c-7 -18 9 -33 35 -33 21 0 31 24 16 39 -16 16 -44 13 -51
-6z"/>
<path d="M1575 3179 c-4 -12 -2 -26 5 -33 9 -8 16 -5 31 13 10 12 16 27 13 32
-10 17 -43 9 -49 -12z"/>
<path d="M1805 3190 c-11 -18 27 -51 45 -40 12 7 12 13 4 27 -14 22 -40 28
-49 13z"/>
<path d="M2031 3181 c-21 -14 -5 -41 24 -41 22 0 26 4 23 22 -3 25 -25 33 -47
19z"/>
<path d="M2307 3184 c-4 -4 -7 -16 -7 -26 0 -13 8 -18 31 -18 26 0 30 3 27 23
-3 22 -36 36 -51 21z"/>
<path d="M1690 3134 c0 -21 4 -25 23 -22 14 2 23 11 25 26 3 18 -1 22 -22 22
-21 0 -26 -5 -26 -26z"/>
<path d="M810 3130 c-9 -17 -7 -22 15 -32 28 -13 32 -11 37 16 5 28 -38 41
-52 16z"/>
<path d="M1107 3113 c-10 -10 -8 -43 2 -43 5 0 16 -3 24 -6 22 -8 31 28 11 43
-20 15 -28 16 -37 6z"/>
<path d="M2020 3070 c0 -16 7 -20 30 -20 23 0 30 4 30 20 0 16 -7 20 -30 20
-23 0 -30 -4 -30 -20z"/>
<path d="M2300 3070 c0 -16 7 -20 30 -20 23 0 30 4 30 20 0 16 -7 20 -30 20
-23 0 -30 -4 -30 -20z"/>
<path d="M772 3038 c4 -28 42 -37 52 -12 7 19 -9 34 -37 34 -13 0 -18 -6 -15
-22z"/>
<path d="M1063 3014 c-6 -16 12 -34 35 -34 19 0 27 31 11 41 -21 13 -39 11
-46 -7z"/>
<path d="M2020 2981 c0 -20 32 -37 50 -26 5 3 10 15 10 26 0 14 -7 19 -30 19
-23 0 -30 -5 -30 -19z"/>
<path d="M2300 2981 c0 -11 5 -23 10 -26 18 -11 50 6 50 26 0 14 -7 19 -30 19
-23 0 -30 -5 -30 -19z"/>
<path d="M733 2964 c-6 -15 19 -44 38 -44 17 0 19 35 3 47 -24 17 -33 16 -41
-3z"/>
<path d="M1026 2934 c-8 -20 -1 -30 24 -37 26 -7 38 17 20 38 -16 20 -36 19
-44 -1z"/>
<path d="M1480 2920 c0 -27 3 -31 23 -28 16 2 22 10 22 28 0 18 -6 26 -22 28
-20 3 -23 -1 -23 -28z"/>
<path d="M1363 2894 c-3 -8 1 -23 10 -31 13 -13 19 -14 31 -4 12 10 13 16 3
32 -14 23 -35 25 -44 3z"/>
<path d="M1601 2891 c-16 -28 13 -51 36 -28 18 18 11 47 -11 47 -9 0 -20 -9
-25 -19z"/>
<path d="M2024 2895 c-8 -21 4 -35 32 -35 19 0 24 5 24 25 0 20 -5 25 -25 25
-14 0 -28 -7 -31 -15z"/>
<path d="M2303 2894 c-3 -8 -1 -20 5 -26 16 -16 47 -5 50 20 3 18 -1 22 -23
22 -14 0 -28 -7 -32 -16z"/>
<path d="M991 2851 c-12 -21 3 -41 30 -41 28 0 30 36 3 49 -19 9 -25 7 -33 -8z"/>
<path d="M1422 2850 c-112 -68 -88 -244 38 -280 87 -25 182 34 195 121 9 62
-19 127 -67 157 -46 29 -121 29 -166 2z m109 -120 c9 -41 -5 -62 -35 -58 -17
2 -21 10 -22 38 -1 49 5 62 29 58 15 -2 23 -13 28 -38z"/>
<path d="M1495 2749 c-10 -15 3 -25 16 -12 7 7 7 13 1 17 -6 3 -14 1 -17 -5z"/>
<path d="M1490 2694 c0 -17 22 -14 28 4 2 7 -3 12 -12 12 -9 0 -16 -7 -16 -16z"/>
<path d="M2033 2813 c-7 -2 -13 -13 -13 -24 0 -15 7 -19 31 -19 26 0 30 3 27
22 -3 23 -22 31 -45 21z"/>
<path d="M2304 2805 c-8 -21 4 -35 32 -35 17 0 24 6 24 19 0 29 -46 43 -56 16z"/>
<path d="M1286 2794 c-8 -20 1 -31 29 -36 14 -2 21 3 23 20 2 12 -1 22 -6 22
-6 0 -17 3 -25 6 -8 3 -17 -2 -21 -12z"/>
<path d="M1677 2797 c-15 -10 -16 -15 -5 -29 19 -23 58 -7 51 21 -6 24 -22 27
-46 8z"/>
<path d="M2020 2700 c0 -16 7 -20 30 -20 23 0 30 4 30 20 0 16 -7 20 -30 20
-23 0 -30 -4 -30 -20z"/>
<path d="M2300 2700 c0 -16 7 -20 30 -20 23 0 30 4 30 20 0 16 -7 20 -30 20
-23 0 -30 -4 -30 -20z"/>
<path d="M1286 2671 c-7 -11 3 -41 14 -41 22 0 40 14 40 31 0 13 -7 19 -24 19
-14 0 -27 -4 -30 -9z"/>
<path d="M1666 2665 c-5 -14 20 -35 42 -35 17 0 21 38 5 44 -25 10 -41 7 -47
-9z"/>
<path d="M1372 2578 c-17 -17 -15 -45 3 -52 21 -8 48 33 33 51 -13 16 -21 16
-36 1z"/>
<path d="M1600 2575 c-10 -13 -9 -19 5 -35 16 -18 21 -19 33 -6 11 11 11 18 3
35 -14 25 -24 26 -41 6z"/>
<path d="M1020 2540 c0 -23 4 -30 20 -30 16 0 20 7 20 30 0 23 -4 30 -20 30
-16 0 -20 -7 -20 -30z"/>
<path d="M1950 2540 c0 -23 4 -30 20 -30 16 0 20 7 20 30 0 23 -4 30 -20 30
-16 0 -20 -7 -20 -30z"/>
<path d="M1487 2544 c-4 -4 -7 -18 -7 -31 0 -20 5 -24 23 -21 16 2 22 10 22
28 0 24 -23 39 -38 24z"/>
<path d="M901 2521 c-17 -11 2 -51 25 -51 20 0 29 27 14 45 -14 17 -20 18 -39
6z"/>
<path d="M1140 2515 c-14 -17 -7 -45 12 -45 7 0 19 10 27 21 11 18 11 23 -1
30 -18 12 -24 11 -38 -6z"/>
<path d="M1831 2521 c-16 -11 2 -51 24 -51 21 0 27 17 15 40 -12 22 -18 24
-39 11z"/>
<path d="M2072 2518 c-17 -17 -15 -37 3 -45 21 -8 47 27 33 44 -13 16 -21 16
-36 1z"/>
<path d="M501 2448 c-10 -24 -53 -121 -95 -216 -43 -95 -75 -176 -72 -180 10
-16 137 -65 145 -56 12 14 193 425 189 430 -6 5 -136 64 -143 64 -3 0 -14 -19
-24 -42z m16 -193 c0 -8 -4 -15 -9 -15 -4 0 -8 7 -8 15 0 8 4 15 8 15 5 0 9
-7 9 -15z m-25 -52 c-6 -2 -10 -9 -6 -14 3 -5 0 -9 -5 -9 -6 0 -10 -5 -8 -11
1 -6 -5 -14 -13 -16 -12 -4 -12 -3 -2 5 8 5 13 12 13 16 -4 25 1 36 17 35 10
0 12 -3 4 -6z m-29 -70 c3 -5 -1 -14 -9 -20 -14 -14 -30 0 -19 17 7 12 22 13
28 3z m-28 -54 c-4 -5 -12 -9 -18 -8 -9 0 -8 2 1 6 6 2 9 10 6 15 -4 7 -2 8 5
4 6 -4 9 -12 6 -17z"/>
<path d="M965 2471 c-83 -51 -104 -145 -50 -228 19 -28 87 -62 124 -63 39 0
111 40 132 74 26 42 25 121 -1 164 -42 68 -140 94 -205 53z m99 -90 c7 -11
-34 -91 -46 -91 -5 0 1 18 12 40 l20 40 -20 0 c-11 0 -20 5 -20 10 0 12 47 13
54 1z"/>
<path d="M1890 2468 c-76 -52 -97 -123 -58 -198 25 -48 89 -90 137 -90 39 0
104 37 129 73 29 43 30 119 2 165 -44 71 -143 95 -210 50z m98 -90 c19 -19 14
-44 -14 -75 -22 -24 -24 -25 -19 -7 3 13 -1 26 -10 34 -19 16 -19 25 1 44 19
19 26 20 42 4z"/>
<path d="M1952 2353 c5 -25 28 -28 28 -4 0 12 -6 21 -16 21 -9 0 -14 -7 -12
-17z"/>
<path d="M827 2423 c-10 -10 -8 -43 2 -43 5 0 16 -3 24 -6 22 -8 31 28 11 43
-20 15 -28 16 -37 6z"/>
<path d="M1218 2419 c-19 -10 -24 -34 -10 -43 5 -3 19 -2 31 1 15 4 21 12 19
26 -4 25 -17 30 -40 16z"/>
<path d="M1756 2423 c-14 -14 -4 -41 16 -46 22 -6 41 9 35 27 -4 12 -43 26
-51 19z"/>
<path d="M2147 2423 c-19 -5 -21 -44 -2 -50 19 -6 46 22 39 40 -3 9 -9 16 -13
16 -3 -1 -14 -3 -24 -6z"/>
<path d="M827 2293 c-14 -13 -7 -43 11 -43 27 0 46 16 39 34 -6 16 -38 22 -50
9z"/>
<path d="M1203 2285 c-7 -19 13 -36 37 -32 8 1 15 11 15 22 0 26 -42 34 -52
10z"/>
<path d="M1757 2293 c-14 -13 -7 -43 11 -43 27 0 43 15 36 33 -6 17 -35 23
-47 10z"/>
<path d="M2133 2284 c-6 -16 12 -34 35 -34 19 0 27 31 11 41 -21 13 -39 11
-46 -7z"/>
<path d="M1480 2195 c0 -20 5 -25 25 -25 20 0 25 5 25 25 0 20 -5 25 -25 25
-20 0 -25 -5 -25 -25z"/>
<path d="M904 2189 c-18 -20 -18 -21 0 -35 17 -12 21 -11 34 7 13 18 13 23 0
35 -12 13 -17 12 -34 -7z"/>
<path d="M1141 2201 c-12 -8 -13 -14 -3 -35 13 -29 24 -32 41 -12 16 19 -18
60 -38 47z"/>
<path d="M1832 2189 c-12 -18 -11 -24 0 -36 12 -12 17 -11 33 7 14 16 15 22 5
35 -17 20 -23 19 -38 -6z"/>
<path d="M2073 2203 c-17 -6 -16 -38 0 -52 10 -8 18 -7 31 2 17 12 17 14 -1
34 -10 12 -24 19 -30 16z"/>
<path d="M1366 2177 c-17 -12 -17 -14 1 -35 16 -21 20 -22 38 -8 20 15 20 15
0 36 -18 17 -23 18 -39 7z"/>
<path d="M1604 2168 c-18 -19 -18 -20 1 -34 17 -13 21 -13 32 3 28 38 -2 66
-33 31z"/>
<path d="M1020 2140 c0 -23 4 -30 20 -30 16 0 20 7 20 30 0 23 -4 30 -20 30
-16 0 -20 -7 -20 -30z"/>
<path d="M1950 2141 c0 -25 4 -31 21 -31 16 0 20 5 17 27 -2 17 -10 29 -20 31
-14 3 -18 -3 -18 -27z"/>
<path d="M1445 2136 c-82 -38 -117 -131 -80 -210 54 -114 221 -113 276 2 35
72 15 144 -53 195 -33 25 -104 31 -143 13z m113 -98 c24 -24 9 -98 -19 -98
-16 0 -39 33 -39 55 0 22 23 55 39 55 4 0 12 -5 19 -12z m-88 -43 c0 -25 -4
-45 -9 -45 -9 0 -20 77 -12 86 14 13 21 -1 21 -41z"/>
<path d="M1524 2016 c-8 -21 -1 -49 13 -53 6 -2 14 5 17 15 12 36 -17 72 -30
38z"/>
<path d="M1283 2065 c-7 -19 12 -35 40 -35 13 0 18 6 15 23 -4 27 -45 37 -55
12z"/>
<path d="M1672 2072 c-20 -13 -3 -44 22 -40 27 4 36 48 9 48 -10 0 -24 -4 -31
-8z"/>
<path d="M1296 1947 c-25 -18 -11 -45 20 -39 17 3 24 11 24 28 0 27 -17 31
-44 11z"/>
<path d="M1667 1941 c-6 -24 0 -31 29 -31 29 0 39 27 14 40 -27 15 -37 12 -43
-9z"/>
<path d="M1365 1839 c-10 -32 10 -46 35 -24 15 14 17 21 9 32 -17 19 -37 16
-44 -8z"/>
<path d="M1596 1851 c-16 -25 19 -56 45 -40 11 6 11 13 3 26 -13 21 -39 29
-48 14z"/>
<path d="M1482 1793 c2 -20 9 -28 23 -28 14 0 21 8 23 28 3 23 0 27 -23 27
-23 0 -26 -4 -23 -27z"/>
</g>
</svg>
